<svg width="20" height="20" viewBox="0 0 20 20" fill="none" xmlns="http://www.w3.org/2000/svg">
<path d="M11.1721 10.0056L19.7453 1.43242C20.0761 1.11285 20.0853 0.585581 19.7658 0.254693C19.4462 -0.0761956 18.9189 -0.0853707 18.588 0.234195C18.5811 0.240881 18.5743 0.247714 18.5675 0.254693L9.9943 8.82787L1.42112 0.254644C1.09023 -0.064922 0.562961 -0.0557469 0.243395 0.275141C-0.0683618 0.597928 -0.0683618 1.10963 0.243395 1.43242L8.81657 10.0056L0.243395 18.5788C-0.0817828 18.904 -0.0817828 19.4313 0.243395 19.7565C0.568622 20.0816 1.0959 20.0816 1.42112 19.7565L9.9943 11.1833L18.5675 19.7565C18.8984 20.0761 19.4256 20.0669 19.7452 19.736C20.0569 19.4132 20.0569 18.9015 19.7452 18.5788L11.1721 10.0056Z" fill="white"/>
</svg>
