<svg width="16" height="16" viewBox="0 0 16 16" fill="none" xmlns="http://www.w3.org/2000/svg">
<path d="M10.3333 12C10.1491 12 10 12.1491 10 12.3333V14.6667C10 15.0342 9.70084 15.3333 9.33334 15.3333H1.33334C0.965844 15.3333 0.666687 15.0342 0.666687 14.6667V1.33334C0.666687 0.965844 0.965844 0.666687 1.33334 0.666687H9.33334C9.70084 0.666687 10 0.965844 10 1.33334V3.66669C10 3.85094 10.1491 4.00003 10.3333 4.00003C10.5176 4.00003 10.6667 3.85094 10.6667 3.66669V1.33334C10.6667 0.597969 10.0687 0 9.33334 0H1.33334C0.597969 0 0 0.597969 0 1.33334V14.6667C0 15.402 0.597969 16 1.33334 16H9.33334C10.0687 16 10.6667 15.402 10.6667 14.6667V12.3333C10.6667 12.1491 10.5176 12 10.3333 12Z" fill="#333333"/>
<path d="M15.8919 7.7542L11.8919 4.08754C11.7555 3.9632 11.5456 3.97263 11.4209 4.10804C11.2966 4.24379 11.3057 4.45473 11.4414 4.57907L14.8098 7.66663H4.33334C4.14909 7.66663 4 7.81573 4 7.99998C4 8.18423 4.14909 8.33332 4.33334 8.33332H14.8099L11.4414 11.4209C11.3057 11.5452 11.2966 11.7562 11.4209 11.8919C11.4867 11.9635 11.5765 12 11.6667 12C11.7471 12 11.8278 11.971 11.892 11.9124L15.892 8.24576C15.9609 8.1826 16 8.09342 16 7.99998C16 7.90654 15.9609 7.81735 15.8919 7.7542Z" fill="#333333"/>
</svg>
