<svg width="29" height="29" viewBox="0 0 29 29" fill="none" xmlns="http://www.w3.org/2000/svg">
<g clip-path="url(#clip0)">
<path d="M28.4216 5.25131C28.4247 5.21111 28.4279 5.17088 28.4212 5.12868C28.4192 5.11297 28.4184 5.09236 28.4165 5.07665C28.403 5.01775 28.3787 4.96172 28.3485 4.9096C28.3124 4.8614 28.2703 4.81707 28.2215 4.78158C28.2078 4.77366 28.1901 4.75986 28.1754 4.75686C28.1382 4.73907 28.101 4.72123 28.0618 4.71322C28.0422 4.70922 28.0275 4.70622 28.0079 4.70222C27.9638 4.69321 27.9128 4.69299 27.8657 4.69869C27.8549 4.70161 27.845 4.6996 27.8342 4.70247L27.8293 4.70147L3.28931 9.89192C3.01733 9.94872 2.84558 10.2149 2.90234 10.4868C2.92544 10.5988 2.98686 10.6981 3.07486 10.7671L10.3841 16.7779L13.0534 25.8593C13.1037 26.038 13.2503 26.1701 13.4307 26.212L13.4503 26.216C13.6375 26.2491 13.8282 26.1655 13.9416 26.01L28.3403 5.47464L28.3413 5.46973C28.3482 5.46094 28.3502 5.45111 28.3571 5.44232C28.3808 5.40121 28.3996 5.3591 28.4096 5.31007C28.4136 5.2905 28.4225 5.27188 28.4216 5.25131ZM4.51844 10.6483L25.4736 6.2117L10.8615 15.8644L4.51844 10.6483ZM13.7275 24.5827L11.4154 16.7025L26.0236 7.04386L13.7275 24.5827Z" fill="white"/>
<g clip-path="url(#clip1)">
<path d="M120.654 -122.22L120.654 121.726C120.654 127.052 116.339 131.372 111.008 131.372C105.676 131.372 101.356 127.052 101.356 121.726L101.356 -122.22C101.356 -173.771 59.425 -215.701 7.88301 -215.701C-43.662 -215.701 -85.593 -173.764 -85.593 -122.22L-85.593 -106.284L-85.593 -22.697L-85.593 173.499C-85.593 214.283 -52.413 247.473 -11.632 247.473C29.161 247.473 62.339 214.295 62.339 173.499L62.339 10.805L62.339 -76.069C62.339 -102.671 40.699 -124.309 14.101 -124.309C-12.509 -124.309 -34.14 -102.67 -34.14 -76.069L-34.14 140.682C-34.14 146.007 -38.455 150.328 -43.789 150.328C-49.121 150.328 -53.435 146.007 -53.435 140.682L-53.435 -76.068C-53.435 -113.302 -23.137 -143.604 14.101 -143.604C51.339 -143.604 81.637 -113.302 81.637 -76.068L81.637 10.806L81.637 173.5L81.637 181.214C81.637 182.579 81.354 183.861 80.845 185.032C75.135 231.023 35.876 266.76 -11.637 266.76C-63.061 266.76 -104.894 224.924 -104.894 173.5L-104.894 -22.703L-104.894 -106.29L-104.894 -122.226C-104.889 -184.403 -54.302 -235 7.88301 -235C70.063 -235 120.654 -184.403 120.654 -122.22Z" fill="black"/>
</g>
</g>
<defs>
<clipPath id="clip0">
<rect width="24" height="24" fill="white" transform="translate(5.00092) rotate(11.5397)"/>
</clipPath>
<clipPath id="clip1">
<rect width="501.759" height="501.759" fill="white" transform="translate(-243 -235)"/>
</clipPath>
</defs>
</svg>
