<svg width="17" height="17" viewBox="0 0 17 17" fill="none" xmlns="http://www.w3.org/2000/svg">
<path d="M14.7026 7.85247C15.2004 7.50265 15.5301 6.92073 15.5301 6.26482C15.5301 5.19181 14.6622 4.32398 13.5892 4.32398C12.5162 4.32398 11.6484 5.19181 11.6484 6.26482C11.6484 6.92073 11.9747 7.50265 12.4759 7.85247C12.0487 8.00047 11.6585 8.2292 11.3288 8.52521C10.8748 8.13838 10.3399 7.84238 9.75465 7.66747C10.4644 7.23692 10.942 6.45318 10.942 5.56181C10.942 4.20289 9.8421 3.10297 8.48318 3.10297C7.12426 3.10297 6.02434 4.20625 6.02434 5.56181C6.02434 6.45318 6.49861 7.23692 7.21171 7.66747C6.63316 7.84238 6.10507 8.13502 5.65433 8.51512C5.32469 8.22584 4.94123 8.00047 4.52078 7.85584C5.0186 7.50601 5.34824 6.9241 5.34824 6.26818C5.34824 5.19517 4.48041 4.32734 3.4074 4.32734C2.33439 4.32734 1.46656 5.19517 1.46656 6.26818C1.46656 6.9241 1.79284 7.50601 2.29402 7.85584C0.958646 8.31666 0 9.58476 0 11.0749V11.2969C0 11.3036 0.00672734 11.3103 0.0134547 11.3103H4.12723C4.10368 11.4953 4.09023 11.6871 4.09023 11.8788V12.1075C4.09023 13.0964 4.89078 13.897 5.8797 13.897H11.0934C12.0823 13.897 12.8829 13.0964 12.8829 12.1075V11.8788C12.8829 11.6871 12.8694 11.4953 12.8459 11.3103H16.9865C16.9933 11.3103 17 11.3036 17 11.2969V11.0749C16.9933 9.5814 16.038 8.31329 14.7026 7.85247ZM12.1866 6.26145C12.1866 5.48781 12.8156 4.8588 13.5892 4.8588C14.3629 4.8588 14.9919 5.48781 14.9919 6.26145C14.9919 7.02501 14.3763 7.64729 13.6161 7.66411C13.6061 7.66411 13.5993 7.66411 13.5892 7.66411C13.5791 7.66411 13.5724 7.66411 13.5623 7.66411C12.7988 7.65065 12.1866 7.02837 12.1866 6.26145ZM6.5558 5.56181C6.5558 4.50225 7.4169 3.64115 8.47645 3.64115C9.53601 3.64115 10.3971 4.50225 10.3971 5.56181C10.3971 6.58437 9.59319 7.42192 8.58746 7.4791C8.55046 7.4791 8.51345 7.4791 8.47645 7.4791C8.43945 7.4791 8.40245 7.4791 8.36545 7.4791C7.35971 7.42192 6.5558 6.58437 6.5558 5.56181ZM1.99466 6.26145C1.99466 5.48781 2.62366 4.8588 3.39731 4.8588C4.17095 4.8588 4.79996 5.48781 4.79996 6.26145C4.79996 7.02501 4.18441 7.64729 3.42422 7.66411C3.41413 7.66411 3.4074 7.66411 3.39731 7.66411C3.38722 7.66411 3.38049 7.66411 3.3704 7.66411C2.61021 7.65065 1.99466 7.02837 1.99466 6.26145ZM4.22141 10.7688H0.544915C0.69628 9.33585 1.9072 8.21239 3.37713 8.20229C3.38385 8.20229 3.39058 8.20229 3.39731 8.20229C3.40404 8.20229 3.41076 8.20229 3.41749 8.20229C4.11713 8.20566 4.75623 8.46466 5.25069 8.88512C4.76632 9.40985 4.40641 10.0557 4.22141 10.7688ZM12.3379 12.1075C12.3379 12.7971 11.7762 13.3588 11.0867 13.3588H5.87297C5.18342 13.3588 4.62169 12.7971 4.62169 12.1075V11.8788C4.62169 9.78995 6.29007 8.0812 8.36545 8.02066C8.40245 8.02402 8.44282 8.02402 8.47982 8.02402C8.51682 8.02402 8.55718 8.02402 8.59418 8.02066C10.6696 8.0812 12.3379 9.78995 12.3379 11.8788V12.1075ZM12.7382 10.7688C12.5532 10.059 12.2 9.42331 11.719 8.89857C12.2169 8.46802 12.8627 8.20902 13.5691 8.20229C13.5758 8.20229 13.5825 8.20229 13.5892 8.20229C13.596 8.20229 13.6027 8.20229 13.6094 8.20229C15.0793 8.21239 16.2903 9.33585 16.4416 10.7688H12.7382Z" fill="#333333"/>
</svg>
