<svg width="21" height="21" viewBox="0 0 21 21" fill="none" xmlns="http://www.w3.org/2000/svg">
<path d="M10.5 0C4.7103 0 0 4.7103 0 10.5C0 13.0357 0.9037 15.3643 2.4059 17.1808C2.40975 17.1861 2.4101 17.1927 2.4143 17.1976C3.49895 18.5056 4.86115 19.5083 6.3791 20.1562C6.3966 20.1635 6.41375 20.1715 6.43125 20.1789C6.5541 20.2307 6.67835 20.2787 6.80295 20.3256C6.85195 20.3441 6.90095 20.363 6.95065 20.3808C7.0581 20.4193 7.16625 20.4557 7.2751 20.4907C7.34475 20.5131 7.4144 20.5352 7.48475 20.5562C7.581 20.5849 7.6776 20.6125 7.7749 20.6388C7.8603 20.6619 7.9464 20.6832 8.0325 20.7039C8.11965 20.7249 8.20715 20.7459 8.295 20.7645C8.393 20.7854 8.49205 20.804 8.59145 20.8222C8.67125 20.8369 8.7507 20.8523 8.8312 20.8652C8.94145 20.8831 9.0524 20.8971 9.1637 20.9114C9.23545 20.9205 9.30685 20.931 9.37895 20.9387C9.50495 20.952 9.632 20.9615 9.7594 20.9702C9.81855 20.9744 9.87735 20.9807 9.93685 20.9839C10.1227 20.9944 10.3106 21 10.5 21C10.6894 21 10.8773 20.9944 11.0638 20.9846C11.1233 20.9814 11.1821 20.9751 11.2413 20.9709C11.3687 20.9618 11.4958 20.9527 11.6218 20.9394C11.6939 20.9317 11.7653 20.9212 11.837 20.9121C11.9483 20.8978 12.0592 20.8838 12.1695 20.8659C12.2497 20.853 12.3295 20.8376 12.4093 20.8229C12.5083 20.8047 12.6073 20.7861 12.7057 20.7652C12.7935 20.7463 12.8807 20.7256 12.9682 20.7046C13.0543 20.6836 13.1404 20.6623 13.2258 20.6395C13.3231 20.6136 13.4197 20.5856 13.516 20.5569C13.5863 20.5359 13.6559 20.5138 13.7256 20.4914C13.8344 20.4564 13.9426 20.42 14.0501 20.3815C14.0994 20.3637 14.1484 20.3448 14.1977 20.3263C14.3227 20.2794 14.4466 20.2311 14.5694 20.1796C14.5869 20.1722 14.6041 20.1642 14.6216 20.1568C16.1392 19.509 17.5017 18.5062 18.5864 17.1983C18.5906 17.1934 18.5909 17.1864 18.5948 17.1815C20.0963 15.3643 21 13.0357 21 10.5C21 4.7103 16.2897 0 10.5 0ZM14.755 19.327C14.7497 19.3295 14.7448 19.3322 14.7395 19.3347C14.6146 19.3949 14.4876 19.4516 14.3595 19.5069C14.3304 19.5192 14.3017 19.5317 14.2726 19.544C14.1606 19.5909 14.0472 19.6353 13.9331 19.678C13.8855 19.6959 13.8379 19.7134 13.79 19.7302C13.6889 19.7663 13.5873 19.8009 13.4848 19.8338C13.4211 19.8541 13.357 19.8734 13.293 19.8923C13.202 19.9195 13.1106 19.9458 13.0182 19.9703C12.9405 19.9909 12.8622 20.0098 12.7838 20.0284C12.7015 20.048 12.6196 20.0679 12.5366 20.0854C12.446 20.1047 12.3546 20.1211 12.2636 20.1376C12.1898 20.1513 12.1163 20.1656 12.0417 20.1775C11.9392 20.1936 11.8356 20.2065 11.7323 20.2195C11.6669 20.2279 11.6018 20.2377 11.5356 20.2447C11.4177 20.2573 11.2987 20.2654 11.18 20.2738C11.1272 20.2773 11.0747 20.2832 11.0211 20.286C10.8479 20.2951 10.6743 20.3 10.5 20.3C10.3257 20.3 10.1521 20.2951 9.9792 20.286C9.926 20.2832 9.8735 20.2776 9.8203 20.2738C9.7013 20.2657 9.58265 20.2573 9.4647 20.2447C9.39855 20.2377 9.33345 20.2279 9.268 20.2195C9.16475 20.2065 9.06115 20.1936 8.9586 20.1775C8.88405 20.1656 8.81055 20.1513 8.7367 20.1376C8.64535 20.1211 8.554 20.1043 8.4637 20.0854C8.38075 20.0679 8.2985 20.048 8.2166 20.0284C8.1382 20.0095 8.0598 19.9909 7.9821 19.9703C7.89005 19.9458 7.79835 19.9192 7.70735 19.8923C7.6433 19.8734 7.57925 19.8541 7.51555 19.8338C7.413 19.8009 7.31115 19.7663 7.21035 19.7302C7.1624 19.713 7.1148 19.6955 7.0672 19.678C6.9531 19.6353 6.8397 19.5909 6.7277 19.544C6.69865 19.5321 6.6703 19.5195 6.64125 19.5072C6.51315 19.4523 6.3861 19.3953 6.2608 19.3351C6.25555 19.3326 6.25065 19.3302 6.2454 19.3274C5.02425 18.7366 3.94555 17.8979 3.0702 16.8794C3.74675 14.3882 5.66195 12.3799 8.12595 11.5808C8.1746 11.6105 8.22535 11.6371 8.2754 11.6651C8.3048 11.6816 8.33385 11.6991 8.3636 11.7149C8.4679 11.7702 8.5736 11.8219 8.68175 11.8685C8.7647 11.9049 8.85045 11.9357 8.93585 11.9672C8.95265 11.9732 8.96945 11.9798 8.98625 11.9857C9.46085 12.1537 9.9687 12.25 10.5 12.25C11.0313 12.25 11.5392 12.1537 12.0134 11.9857C12.0302 11.9798 12.047 11.9732 12.0638 11.9672C12.1492 11.9357 12.235 11.9049 12.3179 11.8685C12.426 11.8219 12.5318 11.7702 12.6361 11.7149C12.6658 11.6988 12.6948 11.6816 12.7242 11.6651C12.7743 11.6371 12.8254 11.6105 12.8744 11.5805C15.3384 12.3799 17.2532 14.3882 17.9301 16.8791C17.0548 17.8973 15.9761 18.7358 14.755 19.327ZM6.65 7.7C6.65 5.57725 8.37725 3.85 10.5 3.85C12.6228 3.85 14.35 5.57725 14.35 7.7C14.35 9.0503 13.6497 10.2385 12.5944 10.9259C12.4565 11.0155 12.313 11.0957 12.1656 11.1657C12.1481 11.1741 12.131 11.1828 12.1135 11.1909C11.0999 11.6518 9.9001 11.6518 8.8865 11.1909C8.869 11.1828 8.8515 11.1741 8.83435 11.1657C8.68665 11.0957 8.5435 11.0155 8.4056 10.9259C7.35035 10.2385 6.65 9.0503 6.65 7.7ZM18.5 16C19.5448 12.7869 18.8128 11.8254 16.5 10.9259C17.4251 10.0926 22 11.5805 16.5 8C22.45 2.8 13.0088 0.7 10.5 0.7C7.2751 -0.5 3.5 5.9912 3.5 8.5C3.5 9.8405 6.53625 10.2438 7.46165 11.0772C5.14885 11.977 1 13.5 2.4143 16.2131C1.25475 14.6034 5.7021 12.0009 7.46165 11.0772C5.5 7 5.09635 0.7 10.5 0.7C15.9037 0.7 16.5 5.5223 16.5 10.9259C16.5 13.0567 17.9301 14 18.5 16Z" fill="white"/>
</svg>
