<svg width="134" height="22" viewBox="0 0 134 22" fill="none" xmlns="http://www.w3.org/2000/svg">
<path d="M35.522 17L33.092 13.49H32.948H30.41V17H27.494V4.4H32.948C34.064 4.4 35.03 4.586 35.846 4.958C36.674 5.33 37.31 5.858 37.754 6.542C38.198 7.226 38.42 8.036 38.42 8.972C38.42 9.908 38.192 10.718 37.736 11.402C37.292 12.074 36.656 12.59 35.828 12.95L38.654 17H35.522ZM35.468 8.972C35.468 8.264 35.24 7.724 34.784 7.352C34.328 6.968 33.662 6.776 32.786 6.776H30.41V11.168H32.786C33.662 11.168 34.328 10.976 34.784 10.592C35.24 10.208 35.468 9.668 35.468 8.972ZM51.0983 12.194C51.0983 12.23 51.0803 12.482 51.0443 12.95H43.7183C43.8503 13.55 44.1623 14.024 44.6543 14.372C45.1463 14.72 45.7583 14.894 46.4903 14.894C46.9943 14.894 47.4383 14.822 47.8223 14.678C48.2183 14.522 48.5843 14.282 48.9203 13.958L50.4143 15.578C49.5023 16.622 48.1703 17.144 46.4183 17.144C45.3263 17.144 44.3603 16.934 43.5203 16.514C42.6803 16.082 42.0323 15.488 41.5763 14.732C41.1203 13.976 40.8923 13.118 40.8923 12.158C40.8923 11.21 41.1143 10.358 41.5583 9.602C42.0143 8.834 42.6323 8.24 43.4123 7.82C44.2043 7.388 45.0863 7.172 46.0583 7.172C47.0063 7.172 47.8643 7.376 48.6323 7.784C49.4003 8.192 50.0003 8.78 50.4323 9.548C50.8763 10.304 51.0983 11.186 51.0983 12.194ZM46.0763 9.296C45.4403 9.296 44.9063 9.476 44.4743 9.836C44.0423 10.196 43.7783 10.688 43.6823 11.312H48.4523C48.3563 10.7 48.0923 10.214 47.6603 9.854C47.2283 9.482 46.7003 9.296 46.0763 9.296ZM57.6901 7.172C59.1901 7.172 60.3421 7.532 61.1461 8.252C61.9501 8.96 62.3521 10.034 62.3521 11.474V17H59.7241V15.794C59.1961 16.694 58.2121 17.144 56.7721 17.144C56.0281 17.144 55.3801 17.018 54.8281 16.766C54.2881 16.514 53.8741 16.166 53.5861 15.722C53.2981 15.278 53.1541 14.774 53.1541 14.21C53.1541 13.31 53.4901 12.602 54.1621 12.086C54.8461 11.57 55.8961 11.312 57.3121 11.312H59.5441C59.5441 10.7 59.3581 10.232 58.9861 9.908C58.6141 9.572 58.0561 9.404 57.3121 9.404C56.7961 9.404 56.2861 9.488 55.7821 9.656C55.2901 9.812 54.8701 10.028 54.5221 10.304L53.5141 8.342C54.0421 7.97 54.6721 7.682 55.4041 7.478C56.1481 7.274 56.9101 7.172 57.6901 7.172ZM57.4741 15.254C57.9541 15.254 58.3801 15.146 58.7521 14.93C59.1241 14.702 59.3881 14.372 59.5441 13.94V12.95H57.6181C56.4661 12.95 55.8901 13.328 55.8901 14.084C55.8901 14.444 56.0281 14.732 56.3041 14.948C56.5921 15.152 56.9821 15.254 57.4741 15.254ZM70.759 17.144C69.727 17.144 68.797 16.934 67.969 16.514C67.153 16.082 66.511 15.488 66.043 14.732C65.587 13.976 65.359 13.118 65.359 12.158C65.359 11.198 65.587 10.34 66.043 9.584C66.511 8.828 67.153 8.24 67.969 7.82C68.797 7.388 69.727 7.172 70.759 7.172C71.779 7.172 72.667 7.388 73.423 7.82C74.191 8.24 74.749 8.846 75.097 9.638L72.919 10.808C72.415 9.92 71.689 9.476 70.741 9.476C70.009 9.476 69.403 9.716 68.923 10.196C68.443 10.676 68.203 11.33 68.203 12.158C68.203 12.986 68.443 13.64 68.923 14.12C69.403 14.6 70.009 14.84 70.741 14.84C71.701 14.84 72.427 14.396 72.919 13.508L75.097 14.696C74.749 15.464 74.191 16.064 73.423 16.496C72.667 16.928 71.779 17.144 70.759 17.144ZM84.1804 16.532C83.9044 16.736 83.5624 16.892 83.1544 17C82.7584 17.096 82.3384 17.144 81.8944 17.144C80.7424 17.144 79.8484 16.85 79.2124 16.262C78.5884 15.674 78.2764 14.81 78.2764 13.67V9.692H76.7824V7.532H78.2764V5.174H81.0844V7.532H83.4964V9.692H81.0844V13.634C81.0844 14.042 81.1864 14.36 81.3904 14.588C81.6064 14.804 81.9064 14.912 82.2904 14.912C82.7344 14.912 83.1124 14.792 83.4244 14.552L84.1804 16.532ZM93.0646 17.216C91.7806 17.216 90.6166 16.94 89.5726 16.388C88.5406 15.824 87.7246 15.05 87.1246 14.066C86.5366 13.07 86.2426 11.948 86.2426 10.7C86.2426 9.452 86.5366 8.336 87.1246 7.352C87.7246 6.356 88.5406 5.582 89.5726 5.03C90.6166 4.466 91.7866 4.184 93.0826 4.184C94.1746 4.184 95.1586 4.376 96.0346 4.76C96.9226 5.144 97.6666 5.696 98.2666 6.416L96.3946 8.144C95.5426 7.16 94.4866 6.668 93.2266 6.668C92.4466 6.668 91.7506 6.842 91.1386 7.19C90.5266 7.526 90.0466 8 89.6986 8.612C89.3626 9.224 89.1946 9.92 89.1946 10.7C89.1946 11.48 89.3626 12.176 89.6986 12.788C90.0466 13.4 90.5266 13.88 91.1386 14.228C91.7506 14.564 92.4466 14.732 93.2266 14.732C94.4866 14.732 95.5426 14.234 96.3946 13.238L98.2666 14.966C97.6666 15.698 96.9226 16.256 96.0346 16.64C95.1466 17.024 94.1566 17.216 93.0646 17.216ZM107.004 7.172C108.204 7.172 109.17 7.532 109.902 8.252C110.646 8.972 111.018 10.04 111.018 11.456V17H108.21V11.888C108.21 11.12 108.042 10.55 107.706 10.178C107.37 9.794 106.884 9.602 106.248 9.602C105.54 9.602 104.976 9.824 104.556 10.268C104.136 10.7 103.926 11.348 103.926 12.212V17H101.118V3.644H103.926V8.324C104.298 7.952 104.748 7.67 105.276 7.478C105.804 7.274 106.38 7.172 107.004 7.172ZM118.549 7.172C120.049 7.172 121.201 7.532 122.005 8.252C122.809 8.96 123.211 10.034 123.211 11.474V17H120.583V15.794C120.055 16.694 119.071 17.144 117.631 17.144C116.887 17.144 116.239 17.018 115.687 16.766C115.147 16.514 114.733 16.166 114.445 15.722C114.157 15.278 114.013 14.774 114.013 14.21C114.013 13.31 114.349 12.602 115.021 12.086C115.705 11.57 116.755 11.312 118.171 11.312H120.403C120.403 10.7 120.217 10.232 119.845 9.908C119.473 9.572 118.915 9.404 118.171 9.404C117.655 9.404 117.145 9.488 116.641 9.656C116.149 9.812 115.729 10.028 115.381 10.304L114.373 8.342C114.901 7.97 115.531 7.682 116.263 7.478C117.007 7.274 117.769 7.172 118.549 7.172ZM118.333 15.254C118.813 15.254 119.239 15.146 119.611 14.93C119.983 14.702 120.247 14.372 120.403 13.94V12.95H118.477C117.325 12.95 116.749 13.328 116.749 14.084C116.749 14.444 116.887 14.732 117.163 14.948C117.451 15.152 117.841 15.254 118.333 15.254ZM133.078 16.532C132.802 16.736 132.46 16.892 132.052 17C131.656 17.096 131.236 17.144 130.792 17.144C129.64 17.144 128.746 16.85 128.11 16.262C127.486 15.674 127.174 14.81 127.174 13.67V9.692H125.68V7.532H127.174V5.174H129.982V7.532H132.394V9.692H129.982V13.634C129.982 14.042 130.084 14.36 130.288 14.588C130.504 14.804 130.804 14.912 131.188 14.912C131.632 14.912 132.01 14.792 132.322 14.552L133.078 16.532Z" fill="white"/>
<path d="M11.2812 5.5625H4.15625C3.8285 5.5625 3.5625 5.8285 3.5625 6.15625C3.5625 6.484 3.8285 6.75 4.15625 6.75H11.2812C11.609 6.75 11.875 6.484 11.875 6.15625C11.875 5.8285 11.609 5.5625 11.2812 5.5625Z" fill="white"/>
<path d="M8.90625 7.9375H4.15625C3.8285 7.9375 3.5625 8.2035 3.5625 8.53125C3.5625 8.859 3.8285 9.125 4.15625 9.125H8.90625C9.234 9.125 9.5 8.859 9.5 8.53125C9.5 8.2035 9.234 7.9375 8.90625 7.9375Z" fill="white"/>
<path d="M13.0625 2H2.375C1.06519 2 0 3.06519 0 4.375V16.25C0 16.4804 0.133 16.6906 0.342 16.7879C0.421562 16.8247 0.50825 16.8438 0.59375 16.8438C0.730313 16.8438 0.865687 16.7962 0.97375 16.706L4.37119 13.875H13.0625C14.3723 13.875 15.4375 12.8098 15.4375 11.5V4.375C15.4375 3.06519 14.3723 2 13.0625 2ZM14.25 11.5C14.25 12.1543 13.718 12.6875 13.0625 12.6875H4.15625C4.01731 12.6875 3.88313 12.7362 3.77625 12.8253L1.1875 14.9829V4.375C1.1875 3.72069 1.7195 3.1875 2.375 3.1875H13.0625C13.718 3.1875 14.25 3.72069 14.25 4.375V11.5Z" fill="white"/>
<path d="M16.625 6.75C16.2972 6.75 16.0312 7.016 16.0312 7.34375C16.0312 7.6715 16.2972 7.9375 16.625 7.9375C17.2805 7.9375 17.8125 8.47069 17.8125 9.125V19.1701L15.808 17.5669C15.7035 17.4838 15.5717 17.4375 15.4375 17.4375H7.125C6.4695 17.4375 5.9375 16.9043 5.9375 16.25V15.6562C5.9375 15.3285 5.6715 15.0625 5.34375 15.0625C5.016 15.0625 4.75 15.3285 4.75 15.6562V16.25C4.75 17.5598 5.81519 18.625 7.125 18.625H15.2285L18.0346 20.8706C18.1426 20.9561 18.2744 21 18.4062 21C18.4929 21 18.5808 20.981 18.6639 20.9418C18.8694 20.8421 19 20.6342 19 20.4062V9.125C19 7.81519 17.9348 6.75 16.625 6.75Z" fill="white"/>
</svg>
