<svg width="160" height="38" viewBox="0 0 160 38" fill="none" xmlns="http://www.w3.org/2000/svg">
<path d="M17.19 29L12.66 22.55C12.1 22.59 11.66 22.61 11.34 22.61H6.15V29H3.15V8H11.34C14.06 8 16.2 8.65 17.76 9.95C19.32 11.25 20.1 13.04 20.1 15.32C20.1 16.94 19.7 18.32 18.9 19.46C18.1 20.6 16.96 21.43 15.48 21.95L20.46 29H17.19ZM11.25 20.06C13.15 20.06 14.6 19.65 15.6 18.83C16.6 18.01 17.1 16.84 17.1 15.32C17.1 13.8 16.6 12.64 15.6 11.84C14.6 11.02 13.15 10.61 11.25 10.61H6.15V20.06H11.25ZM38.8969 21.14C38.8969 21.36 38.8769 21.65 38.8369 22.01H25.9369C26.1169 23.41 26.7269 24.54 27.7669 25.4C28.8269 26.24 30.1369 26.66 31.6969 26.66C33.5969 26.66 35.1269 26.02 36.2869 24.74L37.8769 26.6C37.1569 27.44 36.2569 28.08 35.1769 28.52C34.1169 28.96 32.9269 29.18 31.6069 29.18C29.9269 29.18 28.4369 28.84 27.1369 28.16C25.8369 27.46 24.8269 26.49 24.1069 25.25C23.4069 24.01 23.0569 22.61 23.0569 21.05C23.0569 19.51 23.3969 18.12 24.0769 16.88C24.7769 15.64 25.7269 14.68 26.9269 14C28.1469 13.3 29.5169 12.95 31.0369 12.95C32.5569 12.95 33.9069 13.3 35.0869 14C36.2869 14.68 37.2169 15.64 37.8769 16.88C38.5569 18.12 38.8969 19.54 38.8969 21.14ZM31.0369 15.38C29.6569 15.38 28.4969 15.8 27.5569 16.64C26.6369 17.48 26.0969 18.58 25.9369 19.94H36.1369C35.9769 18.6 35.4269 17.51 34.4869 16.67C33.5669 15.81 32.4169 15.38 31.0369 15.38ZM48.2466 12.95C50.4466 12.95 52.1266 13.49 53.2866 14.57C54.4666 15.65 55.0566 17.26 55.0566 19.4V29H52.3266V26.9C51.8466 27.64 51.1566 28.21 50.2566 28.61C49.3766 28.99 48.3266 29.18 47.1066 29.18C45.3266 29.18 43.8966 28.75 42.8166 27.89C41.7566 27.03 41.2266 25.9 41.2266 24.5C41.2266 23.1 41.7366 21.98 42.7566 21.14C43.7766 20.28 45.3966 19.85 47.6166 19.85H52.1766V19.28C52.1766 18.04 51.8166 17.09 51.0966 16.43C50.3766 15.77 49.3166 15.44 47.9166 15.44C46.9766 15.44 46.0566 15.6 45.1566 15.92C44.2566 16.22 43.4966 16.63 42.8766 17.15L41.6766 14.99C42.4966 14.33 43.4766 13.83 44.6166 13.49C45.7566 13.13 46.9666 12.95 48.2466 12.95ZM47.5866 26.96C48.6866 26.96 49.6366 26.72 50.4366 26.24C51.2366 25.74 51.8166 25.04 52.1766 24.14V21.92H47.7366C45.2966 21.92 44.0766 22.74 44.0766 24.38C44.0766 25.18 44.3866 25.81 45.0066 26.27C45.6266 26.73 46.4866 26.96 47.5866 26.96ZM67.4041 29.18C65.7841 29.18 64.3341 28.83 63.0541 28.13C61.7941 27.43 60.8041 26.47 60.0841 25.25C59.3641 24.01 59.0041 22.61 59.0041 21.05C59.0041 19.49 59.3641 18.1 60.0841 16.88C60.8041 15.64 61.7941 14.68 63.0541 14C64.3341 13.3 65.7841 12.95 67.4041 12.95C68.8441 12.95 70.1241 13.24 71.2441 13.82C72.3841 14.4 73.2641 15.24 73.8841 16.34L71.6941 17.75C71.1941 16.99 70.5741 16.42 69.8341 16.04C69.0941 15.66 68.2741 15.47 67.3741 15.47C66.3341 15.47 65.3941 15.7 64.5541 16.16C63.7341 16.62 63.0841 17.28 62.6041 18.14C62.1441 18.98 61.9141 19.95 61.9141 21.05C61.9141 22.17 62.1441 23.16 62.6041 24.02C63.0841 24.86 63.7341 25.51 64.5541 25.97C65.3941 26.43 66.3341 26.66 67.3741 26.66C68.2741 26.66 69.0941 26.47 69.8341 26.09C70.5741 25.71 71.1941 25.14 71.6941 24.38L73.8841 25.76C73.2641 26.86 72.3841 27.71 71.2441 28.31C70.1241 28.89 68.8441 29.18 67.4041 29.18ZM86.7579 28.07C86.3379 28.43 85.8179 28.71 85.1979 28.91C84.5779 29.09 83.9379 29.18 83.2779 29.18C81.6779 29.18 80.4379 28.75 79.5579 27.89C78.6779 27.03 78.2379 25.8 78.2379 24.2V15.47H75.5379V13.1H78.2379V9.62H81.1179V13.1H85.6779V15.47H81.1179V24.08C81.1179 24.94 81.3279 25.6 81.7479 26.06C82.1879 26.52 82.8079 26.75 83.6079 26.75C84.4879 26.75 85.2379 26.5 85.8579 26L86.7579 28.07ZM100.05 29.24C97.9498 29.24 96.0498 28.78 94.3498 27.86C92.6698 26.92 91.3498 25.64 90.3898 24.02C89.4298 22.38 88.9498 20.54 88.9498 18.5C88.9498 16.46 89.4298 14.63 90.3898 13.01C91.3498 11.37 92.6798 10.09 94.3798 9.17C96.0798 8.23 97.9798 7.76 100.08 7.76C101.72 7.76 103.22 8.04 104.58 8.6C105.94 9.14 107.1 9.95 108.06 11.03L106.11 12.92C104.53 11.26 102.56 10.43 100.2 10.43C98.6398 10.43 97.2298 10.78 95.9698 11.48C94.7098 12.18 93.7198 13.15 92.9998 14.39C92.2998 15.61 91.9498 16.98 91.9498 18.5C91.9498 20.02 92.2998 21.4 92.9998 22.64C93.7198 23.86 94.7098 24.82 95.9698 25.52C97.2298 26.22 98.6398 26.57 100.2 26.57C102.54 26.57 104.51 25.73 106.11 24.05L108.06 25.94C107.1 27.02 105.93 27.84 104.55 28.4C103.19 28.96 101.69 29.24 100.05 29.24ZM120.409 12.95C122.429 12.95 124.029 13.54 125.209 14.72C126.409 15.88 127.009 17.59 127.009 19.85V29H124.129V20.18C124.129 18.64 123.759 17.48 123.019 16.7C122.279 15.92 121.219 15.53 119.839 15.53C118.279 15.53 117.049 15.99 116.149 16.91C115.249 17.81 114.799 19.11 114.799 20.81V29H111.919V6.74H114.799V15.35C115.399 14.59 116.179 14 117.139 13.58C118.119 13.16 119.209 12.95 120.409 12.95ZM138.129 12.95C140.329 12.95 142.009 13.49 143.169 14.57C144.349 15.65 144.939 17.26 144.939 19.4V29H142.209V26.9C141.729 27.64 141.039 28.21 140.139 28.61C139.259 28.99 138.209 29.18 136.989 29.18C135.209 29.18 133.779 28.75 132.699 27.89C131.639 27.03 131.109 25.9 131.109 24.5C131.109 23.1 131.619 21.98 132.639 21.14C133.659 20.28 135.279 19.85 137.499 19.85H142.059V19.28C142.059 18.04 141.699 17.09 140.979 16.43C140.259 15.77 139.199 15.44 137.799 15.44C136.859 15.44 135.939 15.6 135.039 15.92C134.139 16.22 133.379 16.63 132.759 17.15L131.559 14.99C132.379 14.33 133.359 13.83 134.499 13.49C135.639 13.13 136.849 12.95 138.129 12.95ZM137.469 26.96C138.569 26.96 139.519 26.72 140.319 26.24C141.119 25.74 141.699 25.04 142.059 24.14V21.92H137.619C135.179 21.92 133.959 22.74 133.959 24.38C133.959 25.18 134.269 25.81 134.889 26.27C135.509 26.73 136.369 26.96 137.469 26.96ZM159.209 28.07C158.789 28.43 158.269 28.71 157.649 28.91C157.029 29.09 156.389 29.18 155.729 29.18C154.129 29.18 152.889 28.75 152.009 27.89C151.129 27.03 150.689 25.8 150.689 24.2V15.47H147.989V13.1H150.689V9.62H153.569V13.1H158.129V15.47H153.569V24.08C153.569 24.94 153.779 25.6 154.199 26.06C154.639 26.52 155.259 26.75 156.059 26.75C156.939 26.75 157.689 26.5 158.309 26L159.209 28.07Z" fill="#1890FF"/>
<path d="M22 35.33H160V38H23.6467L22 35.33Z" fill="#1890FF"/>
<path d="M17.19 29H20.4614L22.59 32H19.3075L17.19 29Z" fill="#1890FF"/>
<path d="M19.31 32H22.5814L24.71 35H21.4275L19.31 32Z" fill="#1890FF"/>
<path d="M21.43 35H24.7014L26.83 38H23.5475L21.43 35Z" fill="#1890FF"/>
</svg>
