<svg width="200" height="200" viewBox="0 0 200 200" fill="none" xmlns="http://www.w3.org/2000/svg">
<path d="M100 0C44.86 0 0 44.86 0 100C0 124.15 8.60667 146.327 22.9133 163.627C22.95 163.677 22.9533 163.74 22.9933 163.787C33.3233 176.244 46.2967 185.793 60.7533 191.964C60.92 192.033 61.0833 192.11 61.25 192.18C62.42 192.673 63.6033 193.13 64.79 193.577C65.2567 193.753 65.7233 193.933 66.1967 194.103C67.22 194.47 68.25 194.816 69.2867 195.15C69.95 195.363 70.6133 195.573 71.2833 195.773C72.2 196.047 73.12 196.31 74.0467 196.56C74.86 196.78 75.68 196.983 76.5 197.18C77.33 197.38 78.1633 197.58 79 197.757C79.9333 197.956 80.8767 198.133 81.8233 198.307C82.5833 198.447 83.34 198.593 84.1067 198.716C85.1567 198.887 86.2133 199.02 87.2733 199.156C87.9567 199.243 88.6367 199.343 89.3233 199.416C90.5233 199.543 91.7333 199.633 92.9467 199.716C93.51 199.756 94.07 199.816 94.6367 199.847C96.4067 199.947 98.1962 200 100 200C101.804 200 103.593 199.947 105.37 199.853C105.936 199.823 106.496 199.763 107.06 199.723C108.273 199.636 109.484 199.55 110.684 199.423C111.37 199.35 112.05 199.25 112.733 199.163C113.793 199.027 114.85 198.893 115.9 198.723C116.664 198.6 117.424 198.453 118.184 198.313C119.127 198.14 120.07 197.963 121.007 197.764C121.843 197.584 122.673 197.387 123.507 197.187C124.327 196.987 125.147 196.784 125.96 196.567C126.887 196.32 127.807 196.053 128.724 195.78C129.393 195.58 130.056 195.37 130.72 195.156C131.756 194.823 132.787 194.476 133.81 194.11C134.28 193.94 134.747 193.76 135.216 193.584C136.407 193.137 137.587 192.677 138.756 192.187C138.923 192.116 139.087 192.04 139.253 191.97C153.707 185.8 166.683 176.25 177.013 163.793C177.053 163.747 177.056 163.68 177.093 163.633C191.393 146.327 200 124.15 200 100C200 44.86 155.14 0 100 0ZM140.524 184.067C140.473 184.09 140.427 184.116 140.376 184.14C139.187 184.713 137.977 185.253 136.757 185.78C136.48 185.897 136.207 186.016 135.93 186.133C134.863 186.58 133.783 187.003 132.696 187.41C132.243 187.58 131.79 187.747 131.333 187.907C130.37 188.25 129.403 188.58 128.427 188.893C127.82 189.087 127.21 189.27 126.6 189.45C125.733 189.71 124.863 189.96 123.983 190.193C123.243 190.39 122.497 190.57 121.75 190.747C120.967 190.933 120.187 191.123 119.396 191.29C118.533 191.473 117.663 191.63 116.796 191.787C116.093 191.917 115.393 192.053 114.683 192.167C113.707 192.32 112.72 192.443 111.736 192.567C111.113 192.647 110.493 192.74 109.863 192.807C108.74 192.927 107.607 193.004 106.476 193.084C105.973 193.117 105.473 193.173 104.963 193.2C103.313 193.287 101.66 193.333 100 193.333C98.34 193.333 96.6867 193.287 95.04 193.2C94.5333 193.173 94.0333 193.12 93.5267 193.084C92.3933 193.007 91.2633 192.927 90.14 192.807C89.51 192.74 88.89 192.647 88.2667 192.567C87.2833 192.443 86.2967 192.32 85.32 192.167C84.61 192.053 83.91 191.917 83.2067 191.787C82.3367 191.63 81.4667 191.47 80.6067 191.29C79.8167 191.123 79.0333 190.933 78.2533 190.747C77.5067 190.567 76.76 190.39 76.02 190.193C75.1433 189.96 74.27 189.707 73.4033 189.45C72.7933 189.27 72.1833 189.087 71.5767 188.893C70.6 188.58 69.63 188.25 68.67 187.907C68.2133 187.743 67.76 187.576 67.3067 187.41C66.22 187.003 65.14 186.58 64.0733 186.133C63.7967 186.02 63.5267 185.9 63.25 185.783C62.03 185.26 60.82 184.717 59.6267 184.144C59.5767 184.12 59.53 184.097 59.48 184.07C47.85 178.444 37.5767 170.456 29.24 160.756C35.6833 137.03 53.9233 117.904 77.39 110.293C77.8533 110.576 78.3367 110.83 78.8133 111.096C79.0933 111.253 79.37 111.42 79.6533 111.57C80.6467 112.097 81.6533 112.59 82.6833 113.033C83.4733 113.38 84.29 113.673 85.1033 113.973C85.2633 114.03 85.4233 114.093 85.5833 114.15C90.1033 115.75 94.94 116.667 100 116.667C105.06 116.667 109.897 115.75 114.413 114.15C114.573 114.093 114.733 114.03 114.893 113.973C115.707 113.673 116.524 113.38 117.313 113.033C118.343 112.59 119.35 112.097 120.344 111.57C120.627 111.417 120.903 111.253 121.183 111.096C121.66 110.83 122.147 110.576 122.613 110.29C146.08 117.904 164.316 137.03 170.763 160.753C162.427 170.45 152.153 178.436 140.524 184.067ZM63.3333 73.3333C63.3333 53.1167 79.7833 36.6667 100 36.6667C120.217 36.6667 136.667 53.1167 136.667 73.3333C136.667 86.1933 129.997 97.5095 119.947 104.056C118.633 104.91 117.267 105.673 115.863 106.34C115.696 106.42 115.533 106.503 115.367 106.58C105.713 110.97 94.2867 110.97 84.6333 106.58C84.4667 106.503 84.3 106.42 84.1367 106.34C82.73 105.673 81.3667 104.91 80.0533 104.056C70.0033 97.5095 63.3333 86.1933 63.3333 73.3333ZM176.19 152.381C186.141 121.78 179.17 112.623 157.143 104.056C165.953 96.12 209.524 110.29 157.143 76.1905C213.81 26.6667 123.893 6.66667 100 6.66667C69.2867 -4.76191 33.3333 57.059 33.3333 80.9524C33.3333 93.719 62.25 97.56 71.0633 105.497C49.0367 114.067 13.5305 113.661 27 139.5C29 131 54.3057 114.294 71.0633 105.497C52.381 66.6667 50.5367 9 102 9C153.464 9 157.143 52.5933 157.143 104.056C157.143 124.35 170.763 133.333 176.19 152.381Z" fill="#A0A0A0"/>
</svg>
